<svg width="52" height="52" viewBox="0 0 52 52" fill="none" xmlns="http://www.w3.org/2000/svg">
<path d="M0 26C0 11.6406 11.6406 0 26 0C40.3594 0 52 11.6406 52 26C52 40.3594 40.3594 52 26 52C11.6406 52 0 40.3594 0 26Z" fill="white" fill-opacity="0.1"/>
<path d="M0.5 26C0.5 11.9167 11.9167 0.5 26 0.5C40.0833 0.5 51.5 11.9167 51.5 26C51.5 40.0833 40.0833 51.5 26 51.5C11.9167 51.5 0.5 40.0833 0.5 26Z" stroke="white" stroke-opacity="0.2"/>
<path d="M21.443 19.35C22.082 19.35 22.673 19.4 23.213 19.548C23.754 19.647 24.197 19.845 24.59 20.092C24.984 20.34 25.279 20.686 25.475 21.131C25.672 21.576 25.771 22.121 25.771 22.714C25.771 23.407 25.623 24 25.279 24.445C24.984 24.891 24.492 25.286 23.902 25.583C24.738 25.831 25.377 26.276 25.771 26.87C26.164 27.463 26.41 28.205 26.41 29.046C26.41 29.739 26.262 30.332 26.016 30.827C25.771 31.322 25.377 31.767 24.934 32.064C24.4528 32.3823 23.9208 32.6163 23.361 32.756C22.771 32.905 22.181 33.004 21.591 33.004H15V19.35H21.443ZM21.049 24.89C21.59 24.89 22.033 24.742 22.377 24.495C22.721 24.248 22.869 23.802 22.869 23.258C22.869 22.961 22.819 22.665 22.721 22.467C22.623 22.269 22.475 22.12 22.279 21.972C22.082 21.873 21.885 21.774 21.639 21.725C21.393 21.675 21.148 21.675 20.852 21.675H18V24.891H21.05L21.049 24.89ZM21.197 30.728C21.492 30.728 21.787 30.678 22.033 30.629C22.279 30.579 22.525 30.481 22.721 30.332C22.9214 30.1872 23.089 30.0019 23.213 29.788C23.311 29.541 23.41 29.244 23.41 28.898C23.41 28.205 23.213 27.71 22.82 27.364C22.426 27.067 21.885 26.919 21.246 26.919H18V30.729L21.197 30.728ZM30.689 30.678C31.082 31.074 31.672 31.272 32.459 31.272C33 31.272 33.492 31.124 33.885 30.877C34.279 30.58 34.525 30.283 34.623 29.987H37.033C36.639 31.173 36.049 32.014 35.263 32.559C34.475 33.053 33.541 33.35 32.41 33.35C31.6864 33.3522 30.9688 33.2179 30.295 32.954C29.6887 32.7266 29.148 32.3529 28.721 31.866C28.2643 31.4106 27.9267 30.8498 27.738 30.233C27.492 29.59 27.393 28.898 27.393 28.106C27.393 27.364 27.492 26.672 27.738 26.028C27.9749 25.4084 28.3252 24.8383 28.771 24.347C29.213 23.901 29.754 23.506 30.344 23.258C31.0007 22.9941 31.7022 22.8596 32.41 22.862C33.246 22.862 33.984 23.011 34.623 23.357C35.263 23.703 35.754 24.099 36.147 24.693C36.541 25.237 36.837 25.88 37.033 26.573C37.131 27.265 37.18 27.958 37.131 28.749H30C30 29.541 30.295 30.283 30.689 30.679V30.678ZM33.787 25.484C33.443 25.138 32.902 24.94 32.262 24.94C31.82 24.94 31.475 25.04 31.18 25.188C30.885 25.336 30.689 25.534 30.492 25.732C30.3107 25.9232 30.1905 26.1641 30.147 26.424C30.098 26.672 30.049 26.87 30.049 27.067H34.475C34.377 26.325 34.131 25.831 33.787 25.484ZM29.459 20.29H34.967V21.626H29.46V20.29H29.459Z" fill="white"/>
</svg>
