<svg width="52" height="52" viewBox="0 0 52 52" fill="none" xmlns="http://www.w3.org/2000/svg">
<rect width="52" height="52" rx="26" fill="white" fill-opacity="0.1"/>
<rect x="0.5" y="0.5" width="51" height="51" rx="25.5" stroke="white" stroke-opacity="0.2"/>
<path d="M31.8381 18H20.1621C19.6351 18 19.1811 18 18.8061 18.03C18.4111 18.063 18.0171 18.134 17.6391 18.327C17.0746 18.6146 16.6157 19.0735 16.3281 19.638C16.2321 19.826 16.1661 20.018 16.1211 20.211L23.0061 24.801C24.3541 25.701 24.8241 25.995 25.3021 26.111C25.7616 26.2211 26.2406 26.2211 26.7001 26.111C27.1791 25.995 27.6481 25.701 28.9961 24.801L35.8821 20.211C35.836 20.0124 35.7662 19.82 35.6741 19.638C35.3865 19.0735 34.9276 18.6146 34.3631 18.327C33.9851 18.134 33.5911 18.063 33.1961 18.031C32.744 18.0035 32.291 17.9932 31.8381 18Z" fill="white"/>
<path d="M36 22.535L29.951 26.568C28.818 27.324 28.035 27.847 27.165 28.055C26.3992 28.2385 25.6008 28.2385 24.835 28.055C23.965 27.847 23.182 27.325 22.049 26.568L16 22.535V29.838C16 30.366 16 30.82 16.03 31.195C16.063 31.59 16.134 31.984 16.327 32.362C16.6146 32.9265 17.0735 33.3854 17.638 33.673C18.016 33.866 18.41 33.937 18.805 33.969C19.18 34 19.635 34 20.161 34H31.84C32.367 34 32.822 34 33.196 33.97C33.591 33.937 33.985 33.866 34.363 33.673C34.9275 33.3854 35.3864 32.9265 35.674 32.362C35.867 31.984 35.938 31.59 35.97 31.195C36.001 30.82 36.001 30.365 36.001 29.839L36 22.535Z" fill="white"/>
</svg>
