<svg width="52" height="52" viewBox="0 0 52 52" fill="none" xmlns="http://www.w3.org/2000/svg">
<rect width="52" height="52" rx="26" fill="white" fill-opacity="0.1"/>
<rect x="0.5" y="0.5" width="51" height="51" rx="25.5" stroke="white" stroke-opacity="0.2"/>
<path fill-rule="evenodd" clip-rule="evenodd" d="M17 20C17 19.7348 17.1054 19.4804 17.2929 19.2929C17.4804 19.1054 17.7348 19 18 19H34C34.2652 19 34.5196 19.1054 34.7071 19.2929C34.8946 19.4804 35 19.7348 35 20C35 20.2652 34.8946 20.5196 34.7071 20.7071C34.5196 20.8946 34.2652 21 34 21H18C17.7348 21 17.4804 20.8946 17.2929 20.7071C17.1054 20.5196 17 20.2652 17 20ZM17 26C17 25.7348 17.1054 25.4804 17.2929 25.2929C17.4804 25.1054 17.7348 25 18 25H34C34.2652 25 34.5196 25.1054 34.7071 25.2929C34.8946 25.4804 35 25.7348 35 26C35 26.2652 34.8946 26.5196 34.7071 26.7071C34.5196 26.8946 34.2652 27 34 27H18C17.7348 27 17.4804 26.8946 17.2929 26.7071C17.1054 26.5196 17 26.2652 17 26ZM17 32C17 31.7348 17.1054 31.4804 17.2929 31.2929C17.4804 31.1054 17.7348 31 18 31H34C34.2652 31 34.5196 31.1054 34.7071 31.2929C34.8946 31.4804 35 31.7348 35 32C35 32.2652 34.8946 32.5196 34.7071 32.7071C34.5196 32.8946 34.2652 33 34 33H18C17.7348 33 17.4804 32.8946 17.2929 32.7071C17.1054 32.5196 17 32.2652 17 32Z" fill="white"/>
</svg>
