<svg width="24" height="24" viewBox="0 0 24 24" fill="none" xmlns="http://www.w3.org/2000/svg">
<path fill-rule="evenodd" clip-rule="evenodd" d="M12 2C10.1435 2 8.36301 2.7375 7.05025 4.05025C5.7375 5.36301 5 7.14348 5 9V15C5 15.9193 5.18106 16.8295 5.53284 17.6788C5.88463 18.5281 6.40024 19.2997 7.05025 19.9497C7.70026 20.5998 8.47194 21.1154 9.32122 21.4672C10.1705 21.8189 11.0807 22 12 22C12.9193 22 13.8295 21.8189 14.6788 21.4672C15.5281 21.1154 16.2997 20.5998 16.9497 19.9497C17.5998 19.2997 18.1154 18.5281 18.4672 17.6788C18.8189 16.8295 19 15.9193 19 15V9C19 7.14348 18.2625 5.36301 16.9497 4.05025C15.637 2.7375 13.8565 2 12 2ZM12 6C11.7348 6 11.4804 6.10536 11.2929 6.29289C11.1054 6.48043 11 6.73478 11 7V9C11 9.26522 11.1054 9.51957 11.2929 9.70711C11.4804 9.89464 11.7348 10 12 10C12.2652 10 12.5196 9.89464 12.7071 9.70711C12.8946 9.51957 13 9.26522 13 9V7C13 6.73478 12.8946 6.48043 12.7071 6.29289C12.5196 6.10536 12.2652 6 12 6Z" fill="white"/>
</svg>
