<svg width="52" height="52" viewBox="0 0 52 52" fill="none" xmlns="http://www.w3.org/2000/svg">
<path d="M0 26C0 11.6406 11.6406 0 26 0C40.3594 0 52 11.6406 52 26C52 40.3594 40.3594 52 26 52C11.6406 52 0 40.3594 0 26Z" fill="white" fill-opacity="0.1"/>
<path d="M0.5 26C0.5 11.9167 11.9167 0.5 26 0.5C40.0833 0.5 51.5 11.9167 51.5 26C51.5 40.0833 40.0833 51.5 26 51.5C11.9167 51.5 0.5 40.0833 0.5 26Z" stroke="white" stroke-opacity="0.2"/>
<path fill-rule="evenodd" clip-rule="evenodd" d="M18.562 16H18.462C18.092 15.998 17.622 15.995 17.202 16.198C16.85 16.368 16.532 16.664 16.337 17.002C16.104 17.406 16.074 17.849 16.051 18.192L16.045 18.279C16.015 18.682 16 19.089 16 19.5C16 28.613 23.387 36 32.5 36C32.91 36 33.318 35.985 33.721 35.955L33.809 35.949C34.151 35.926 34.594 35.896 34.998 35.663C35.336 35.468 35.632 35.15 35.801 34.798C36.005 34.378 36.002 33.908 36.001 33.538V33.474L36 33.438V30.535C36.002 30.225 36.003 29.838 35.867 29.483C35.7496 29.1776 35.559 28.9056 35.312 28.691C35.025 28.441 34.66 28.311 34.369 28.206L34.289 28.177L31.055 27.002C30.8683 26.931 30.6792 26.8666 30.488 26.809C30.2662 26.7421 30.0344 26.714 29.803 26.726C29.4339 26.7501 29.0788 26.8761 28.777 27.09C28.5896 27.2264 28.4272 27.3942 28.297 27.586C28.194 27.733 28.087 27.912 27.978 28.093L27.97 28.106L26.877 29.829C24.8649 28.7775 23.223 27.1353 22.172 25.123L23.894 24.03L23.907 24.022C24.087 23.914 24.267 23.806 24.414 23.702C24.578 23.587 24.758 23.438 24.91 23.223C25.1239 22.9212 25.2499 22.5661 25.274 22.197C25.286 21.9656 25.2579 21.7339 25.191 21.512C25.1334 21.3208 25.069 21.1317 24.998 20.945L23.823 17.71L23.793 17.63C23.689 17.339 23.558 16.974 23.309 16.687C23.0941 16.4399 22.8218 16.2493 22.516 16.132C22.162 15.996 21.774 15.997 21.465 15.999H18.562V16Z" fill="white"/>
</svg>
