<svg width="24" height="24" viewBox="0 0 24 24" fill="none" xmlns="http://www.w3.org/2000/svg">
<g id="star-alt-3 1">
<g id="Group">
<path id="Vector" fill-rule="evenodd" clip-rule="evenodd" d="M11.9999 2C12.2006 2.00004 12.3965 2.06043 12.5624 2.17332C12.7282 2.28621 12.8563 2.44637 12.9299 2.633L14.9659 7.795C15.1719 8.318 15.2189 8.418 15.2739 8.495C15.3378 8.58378 15.4159 8.66148 15.5049 8.725C15.5819 8.781 15.6819 8.828 16.2049 9.035L21.3669 11.07C21.5534 11.1437 21.7135 11.2718 21.8263 11.4377C21.9391 11.6035 21.9994 11.7994 21.9994 12C21.9994 12.2006 21.9391 12.3965 21.8263 12.5623C21.7135 12.7282 21.5534 12.8563 21.3669 12.93L16.2049 14.966C15.6819 15.172 15.5819 15.219 15.5049 15.274C15.4161 15.3379 15.3384 15.4159 15.2749 15.505C15.2189 15.582 15.1719 15.682 14.9649 16.205L12.9299 21.367C12.8562 21.5535 12.7281 21.7136 12.5623 21.8263C12.3964 21.9391 12.2005 21.9994 11.9999 21.9994C11.7994 21.9994 11.6034 21.9391 11.4376 21.8263C11.2717 21.7136 11.1436 21.5535 11.0699 21.367L9.03393 16.205C8.82793 15.682 8.78093 15.582 8.72593 15.505C8.66203 15.4162 8.58399 15.3385 8.49493 15.275C8.41793 15.219 8.31793 15.172 7.79493 14.965L2.63293 12.93C2.44641 12.8563 2.28636 12.7282 2.17358 12.5623C2.0608 12.3965 2.00049 12.2006 2.00049 12C2.00049 11.7994 2.0608 11.6035 2.17358 11.4377C2.28636 11.2718 2.44641 11.1437 2.63293 11.07L7.79493 9.034C8.31793 8.828 8.41793 8.781 8.49493 8.726C8.58371 8.6621 8.66141 8.58406 8.72493 8.495C8.78093 8.418 8.82793 8.318 9.03493 7.795L11.0699 2.633C11.1436 2.44637 11.2716 2.28621 11.4375 2.17332C11.6033 2.06043 11.7993 2.00004 11.9999 2Z" fill="#014FB2"/>
</g>
</g>
</svg>
